<?xml version="1.0" encoding="UTF-8" standalone="no"?>
<svg width="48px" height="32px" viewBox="0 0 48 32" version="1.1" xmlns="http://www.w3.org/2000/svg" xmlns:xlink="http://www.w3.org/1999/xlink">
    <!-- Generator: Sketch 40.3 (33839) - http://www.bohemiancoding.com/sketch -->
    <title>Group</title>
    <desc>Created with Sketch.</desc>
    <defs>
        <rect id="path-1" x="0" y="0" width="48" height="32" rx="4"></rect>
    </defs>
    <g id="Page-1" stroke="none" stroke-width="1" fill="none" fill-rule="evenodd">
        <g id="Artboard">
            <g id="Group">
                <mask id="mask-2" fill="white">
                    <use xlink:href="#path-1"></use>
                </mask>
                <use id="Rectangle" fill="#CFD8DC" xlink:href="#path-1"></use>
                <path d="M-0.83359375,14.5179688 C-0.83359375,14.5179688 1.93320312,13.28125 2.6515625,13.38125 C3.36992187,13.48125 4.58085937,12.7140625 5.59570313,12.3179687 C6.61054688,11.921875 7.00664063,10.884375 8.21796875,12.0957031 C9.42929687,13.3070313 9.9703125,13.48125 11.6292969,13.3070313 C13.2882813,13.1328125 16.6398438,13.4589844 17.2882813,12.6144531 C17.9367187,11.7699219 21.2441406,10.9996094 21.3441406,11.5699219 C21.4441406,12.1402344 23.2957031,11.9179688 24.703125,12.6105469 C26.1105469,13.303125 29.7363281,14.1957031 30.8511719,13.9957031 C31.9660156,13.7957031 34.1140625,13.1511719 35.003125,12.6328125 C35.8921875,12.1144531 35.1515625,13.0777344 36.5847656,13.2515625 C38.0179688,13.4253906 37.9921875,11.7917969 39.1328125,12.3105469 C40.2734375,12.8292969 42.003125,13.5214844 43.2882812,13.3476562 C44.5734375,13.1738281 45.8101563,12.284375 46.4289063,12.4328125 C47.0476563,12.58125 48.6585938,12.903125 48.6585938,12.903125 L49.2511719,33.4773438 L-2.60390625,33.0367188 L-0.83359375,14.5179688 Z" id="Path-4" fill="#90A4AE" mask="url(#mask-2)"></path>
                <path d="M-2.15039063,21.3476562 C-2.15039063,21.3476562 -0.478125,18.5257812 1.59570312,17.6847656 C3.66953125,16.84375 6.55859375,17.1625 8.16601562,17.2625 C9.7734375,17.3625 13.0625,18.1292969 14.9179688,17.9808594 C16.7734375,17.8324219 19.3621094,14.603125 25.4957031,14.5808594 C31.6292969,14.5585938 32.2210938,16.9625 35.1175781,17.103125 C38.0140625,17.24375 39.7363281,19.1292969 41.6140625,18.6105469 C41.7708981,18.5672189 43.3907534,17.6359108 43.6140625,17.5738281 C46.0643493,16.8926183 50.6770384,16.118441 51.24375,16.9808594 C51.8621094,17.921875 47.3769531,17.1625 48.7101562,16.3957031 C50.0433594,15.6289062 49.0976562,17.5699219 49.6902344,17.0996094 C50.2828125,16.6292969 50.9011719,34.9996094 50.9011719,34.9996094 L-7.7171875,36.6292969 L-2.15039063,21.3476562 Z" id="Path-3" fill="#455A64" mask="url(#mask-2)"></path>
                <path d="M-0.14296875,23.2253906 C-0.14296875,23.2253906 0.816015625,22.4585938 6.47539063,24.3105469 C12.1347656,26.1625 15.7378906,27.321875 22.0863281,27.321875 C28.4347656,27.321875 34.5570312,26.0625 37.7199219,23.4921875 C40.8828125,20.921875 44.5863281,18.3769531 47.5011719,18.0808594 C50.4160156,17.7847656 51.3789063,19.9589844 51.3789063,19.9589844 L49.9976563,35.4402344 C49.9976563,35.4402344 -6.05429688,36.8480469 -5.50976562,36.3292969 C-4.96523438,35.8105469 -4.2984375,25.8105469 -4.2984375,25.8105469 L-0.14296875,23.2253906 Z" id="Path-2" fill="#263238" mask="url(#mask-2)"></path>
            </g>
        </g>
    </g>
</svg>